<svg xmlns="http://www.w3.org/2000/svg" viewBox="0 0 48 48">
  <circle cx="24" cy="24" r="20" fill="#FF4500"/>
  <path fill="#FFF" d="M36,24c0-1.1-0.9-2-2-2c-0.5,0-1,0.2-1.4,0.6c-1.6-1-3.6-1.6-5.7-1.7l1.3-4l3.4,0.8c0.1,0.9,0.8,1.6,1.8,1.6c1,0,1.8-0.8,1.8-1.8s-0.8-1.8-1.8-1.8c-0.7,0-1.3,0.4-1.6,1l-3.9-0.9c-0.2,0-0.4,0.1-0.5,0.3l-1.5,5c-2.2,0.1-4.3,0.7-6,1.8C19.1,22.2,18.5,22,18,22c-1.1,0-2,0.9-2,2c0,0.7,0.4,1.4,1,1.8c0,0.2,0,0.4,0,0.7c0,3.6,4,6.5,9,6.5s9-2.9,9-6.5c0-0.2,0-0.4,0-0.7C35.6,25.4,36,24.7,36,24z M18,26c0-1.1,0.9-2,2-2s2,0.9,2,2s-0.9,2-2,2S18,27.1,18,26z M29.2,30.6c-1.3,1.3-3.6,1.4-5.2,1.4s-3.9-0.1-5.2-1.4c-0.2-0.2-0.2-0.5,0-0.7c0.2-0.2,0.5-0.2,0.7,0c1,1,2.8,1.1,4.5,1.1s3.5-0.1,4.5-1.1c0.2-0.2,0.5-0.2,0.7,0C29.4,30.1,29.4,30.4,29.2,30.6z M28,28c-1.1,0-2-0.9-2-2s0.9-2,2-2s2,0.9,2,2S29.1,28,28,28z"/>
</svg>
