<svg xmlns="http://www.w3.org/2000/svg" viewBox="0 0 48 48">
  <path fill="#fffc00" d="M24,44c11,0,20-9,20-20S35,4,24,4S4,13,4,24S13,44,24,44z"/>
  <path fill="#1c1c1c" d="M35.8,29.8c-4.1-0.7-6-4.4-6-4.5c-0.2-0.4-0.3-0.7-0.1-1c0.2-0.3,0.5-0.4,1-0.5c0.2-0.1,0.5-0.1,0.7-0.2c1-0.3,1.7-0.8,1.8-1.4c0.1-0.4-0.1-0.8-0.5-1.1c-0.3-0.2-0.6-0.3-0.9-0.2c-0.2,0-0.4,0.1-0.6,0.2c-0.2,0.1-0.5,0.2-0.7,0.2c-0.2,0-0.3,0-0.4-0.1c0-0.1,0-0.3,0-0.5c0.2-1.7,0.4-4.1-0.2-5.5c-1.4-3.3-4.6-3.8-5.7-3.8l-0.4,0c-1.2,0-4.3,0.5-5.7,3.8c-0.6,1.4-0.4,3.8-0.2,5.5c0,0.2,0,0.4,0.1,0.5c-0.1,0.1-0.2,0.1-0.4,0.1c-0.2,0-0.5-0.1-0.7-0.2c-0.2-0.1-0.4-0.1-0.6-0.2c-0.1,0-0.2,0-0.3,0c-0.3,0-0.6,0.1-0.8,0.3c-0.4,0.3-0.5,0.7-0.4,1.1c0.1,0.6,0.8,1.1,1.8,1.4c0.2,0.1,0.5,0.1,0.7,0.2c0.5,0.1,0.8,0.3,1,0.5c0.2,0.3,0.1,0.6-0.1,1c0,0.1-1.9,3.8-6,4.5c-0.3,0.1-0.5,0.3-0.5,0.6c0,0.4,0.3,0.8,0.9,1.1c0.7,0.4,1.6,0.6,2.3,0.7c0.1,0.1,0.1,0.3,0.2,0.7c0,0.2,0.1,0.4,0.1,0.5c0,0.3,0.3,0.5,0.7,0.5c0.2,0,0.5-0.1,0.8-0.1c0.5-0.1,1-0.2,1.6-0.2c0.4,0,0.7,0,1.1,0.1c0.8,0.2,1.5,0.8,2.4,1.4c1.1,0.8,2.4,1.8,4.2,1.8l0.2,0c0,0,0.1,0,0.1,0c1.8,0,3.1-1,4.2-1.8c0.9-0.6,1.6-1.2,2.4-1.4c0.4-0.1,0.7-0.1,1.1-0.1c0.6,0,1.1,0.1,1.6,0.2c0.3,0.1,0.5,0.1,0.8,0.1c0.4,0,0.7-0.2,0.8-0.5c0-0.2,0.1-0.4,0.1-0.6c0.1-0.4,0.1-0.5,0.2-0.6c0.7-0.1,1.6-0.4,2.3-0.7c0.6-0.3,0.9-0.7,0.9-1.1C36.3,30.1,36.1,29.8,35.8,29.8z"/>
</svg>
