<svg xmlns="http://www.w3.org/2000/svg" viewBox="0 0 48 48">
  <path fill="#212121" d="M41,4H7C5.3,4,4,5.3,4,7v34c0,1.7,1.3,3,3,3h34c1.7,0,3-1.3,3-3V7C44,5.3,42.7,4,41,4z"/>
  <path fill="#ec407a" d="M35.9,18.5c-2.1,0-4-0.8-5.5-2.1v9.6c0,4.8-3.9,8.7-8.7,8.7s-8.7-3.9-8.7-8.7s3.9-8.7,8.7-8.7c0.4,0,0.8,0,1.2,0.1v4.3c-0.4-0.1-0.8-0.1-1.2-0.1c-2.4,0-4.4,2-4.4,4.4s2,4.4,4.4,4.4s4.4-2,4.4-4.4V10h4.3c0,0.1,0,0.2,0,0.3c0.3,2.3,1.8,4.3,3.9,5.2c0.6,0.3,1.3,0.4,2,0.5v2.5H35.9z"/>
  <path fill="#00f2ea" d="M33.5,16.5c-2.1,0-4-0.8-5.5-2.1v9.6c0,4.8-3.9,8.7-8.7,8.7s-8.7-3.9-8.7-8.7s3.9-8.7,8.7-8.7c0.4,0,0.8,0,1.2,0.1v4.3c-0.4-0.1-0.8-0.1-1.2-0.1c-2.4,0-4.4,2-4.4,4.4s2,4.4,4.4,4.4s4.4-2,4.4-4.4V8h4.3c0,0.1,0,0.2,0,0.3c0.3,2.3,1.8,4.3,3.9,5.2c0.6,0.3,1.3,0.4,2,0.5v2.5H33.5z"/>
</svg>
